# xmcd CD database file
#
# Track frame offsets:
#	150
#	19794
#	40372
#	56653
#	69511
#	85103
#	107542
#	128268
#	147275
#	175645
#	199821
#	220678
#	246919
#
# Disc length: 3470 seconds
#
# Revision: 0
# Processed by: cddbd v1.5.1PL2 Copyright (c) Steve Scherf et al.
# Submitted via: CDex 1.51
#
DISCID=ac0d8c0d
DTITLE=J. J. Soul Band - City Life
DYEAR=1997
DGENRE=Blues
TTITLE0=City Life
TTITLE1=Altered States
TTITLE2=Intimate Letters
TTITLE3=Life Without The Fuss
TTITLE4=Same Day Service
TTITLE5=Waiting Tables
TTITLE6=Your Old Wagon
TTITLE7=All The Time In The World
TTITLE8=Love Is The Only Crime
TTITLE9=Another Working Band
TTITLE10=Go Find A Millionaire
TTITLE11=My Funny Valentine
TTITLE12=Do, Re, Me
EXTD=YEAR: 1997
EXTT0=
EXTT1=
EXTT2=
EXTT3=
EXTT4=
EXTT5=
EXTT6=
EXTT7=
EXTT8=
EXTT9=
EXTT10=
EXTT11=
EXTT12=
PLAYORDER=
